<svg viewBox="0 0 24 24" xmlns="http://www.w3.org/2000/svg"><path d="M12 3a.63.63 0 0 0-.253.053L7.64 4.834l-2.283.99-.005.002a2.039 2.039 0 0 0-1.228 1.87v9.945l7.622 3.306a.624.624 0 0 0 .11.035l.009.003a.632.632 0 0 0 .267 0h.001l.01-.003a.63.63 0 0 0 .109-.035l.008-.004 6.38-2.767a2.048 2.048 0 0 0 1.234-1.879V6.358l-7.622-3.305A.63.63 0 0 0 12 3zm-.518 4.225c.69.015 1.394.273 2.002.824a.07.07 0 0 0 .054.018c1.625-.167 2.926.985 3.055 2.527a.07.07 0 0 0 .026.049c.571.459.893 1.029 1.005 1.67a.035.035 0 0 1-.013.034.035.035 0 0 1-.036.003l-2.268-1.117a.105.105 0 0 1-.055-.118c.32-1.366-.827-2.318-2.156-1.697a.07.07 0 0 1-.089-.027c-1.225-1.99-4.233-.716-3.293 1.577-2.485.292-2.64 4.274.833 3.813-3.894 2.359-5.921-2.726-2.222-4.567a.069.069 0 0 0 .038-.056c.16-1.817 1.602-2.966 3.119-2.933Zm2.385 4.569a.09.09 0 0 1 .039.009l3.2 1.578a.045.045 0 0 1 .025.04c0 .017-.01.033-.025.04l-3.129 1.543a.248.248 0 0 1-.22 0l-3.129-1.542a.045.045 0 0 1 0-.08l3.2-1.58a.086.086 0 0 1 .04-.008zm-1.725 3.417c.013 0 .026.003.038.009l1.577.777c.07.035.15.035.22 0l1.578-.777a.087.087 0 0 1 .077 0l1.474.727a.045.045 0 0 1 0 .081l-3.103 1.53a.308.308 0 0 1-.272 0l-3.103-1.53a.045.045 0 0 1 0-.08l1.475-.728a.087.087 0 0 1 .039-.01z"/></svg>