<?xml version="1.0" encoding="UTF-8" standalone="no"?>
<!-- Created with Inkscape (http://www.inkscape.org/) -->

<svg
   width="24"
   height="24"
   viewBox="0 0 6.3499999 6.35"
   version="1.1"
   id="svg1"
   xml:space="preserve"
   inkscape:version="1.3.2 (091e20e, 2023-11-25, custom)"
   sodipodi:docname="agsceneviewer-logo.svg"
   xmlns:inkscape="http://www.inkscape.org/namespaces/inkscape"
   xmlns:sodipodi="http://sodipodi.sourceforge.net/DTD/sodipodi-0.dtd"
   xmlns="http://www.w3.org/2000/svg"
   xmlns:svg="http://www.w3.org/2000/svg"><sodipodi:namedview
     id="namedview1"
     pagecolor="#ffffff"
     bordercolor="#999999"
     borderopacity="1"
     inkscape:showpageshadow="2"
     inkscape:pageopacity="0"
     inkscape:pagecheckerboard="0"
     inkscape:deskcolor="#d1d1d1"
     inkscape:document-units="mm"
     inkscape:zoom="48.875"
     inkscape:cx="11.98977"
     inkscape:cy="12"
     inkscape:window-width="2560"
     inkscape:window-height="1369"
     inkscape:window-x="-8"
     inkscape:window-y="-8"
     inkscape:window-maximized="1"
     inkscape:current-layer="layer1" /><defs
     id="defs1" /><g
     inkscape:label="Layer 1"
     inkscape:groupmode="layer"
     id="layer1"><path
       d="m 5.5520564,3.2319957 c -0.0052,-0.0057 -0.01372,-0.007 -0.02045,-0.0032 -0.743173,0.423781 -1.581746,0.652007 -2.437178,0.663301 -0.969569,0 -1.478073,-0.324814 -1.656887,-0.442518 -0.04815,-0.03176 -0.0805,-0.08251 -0.08893,-0.13958 -0.0092,-0.08583 -0.01285,-0.172168 -0.01082,-0.258472 -0.0022,-0.133326 0.01,-0.266509 0.03638,-0.39722 0.118498,0.09404 0.250326,0.169933 0.391156,0.225183 0.896106,0.366854 1.900487,0.366854 2.796592,0 0.119119,-0.04854 0.232316,-0.110487 0.337417,-0.18464 l 0.02152,-0.01558 0.0051,0.02616 c 0.01814,0.09331 0.02898,0.187875 0.03246,0.282846 2.62e-4,0.0073 0.004,0.01394 0.01011,0.01791 0.0061,0.004 0.0137,0.0047 0.02045,0.0021 0.132399,-0.05213 0.261171,-0.113067 0.38545,-0.182381 0.04713,-0.02638 0.07175,-0.08025 0.06087,-0.13316 -0.03971,-0.192653 -0.10371,-0.379504 -0.190466,-0.55606 l -0.0024,-0.0048 C 5.0517864,1.7455807 4.7587164,1.4190407 4.3952024,1.1878827 3.7656904,0.78787674 2.9828064,0.71318974 2.2890214,0.98695374 1.7371964,1.2047467 1.2884324,1.6236007 1.0331584,2.1591107 c -0.11646702,0.23473 -0.19262902,0.487376 -0.22530202,0.747359 -0.07303,0.665334 0.13969,1.330396 0.58526002,1.829851 0.445569,0.499456 1.082138,0.786391 1.751456,0.78947 0.909967,-0.02295 1.729755,-0.555513 2.120567,-1.377608 0.0031,-0.0065 0.001,-0.01422 -0.0048,-0.01839 -0.0058,-0.0042 -0.0138,-0.0036 -0.01896,0.0014 -0.511713,0.491026 -1.175847,0.827135 -1.887538,0.827135 -0.647512,0.01141 -1.261271,-0.288195 -1.650586,-0.805735 -0.0021,-0.0027 -0.0021,-0.0065 3.1e-5,-0.0092 0.0022,-0.0027 0.0059,-0.0036 0.009,-0.0022 0.414841,0.196482 0.866395,0.303437 1.325296,0.313876 0.510454,-0.0132 1.012145,-0.135633 1.471295,-0.359055 0.415577,-0.185413 0.775572,-0.476094 1.044352,-0.843305 0.0044,-0.0063 0.004,-0.01491 -0.0012,-0.02069 z m -3.11986,-1.842116 0.0097,-0.0042 c 0.455692,-0.191153 0.96983,-0.187071 1.42243,0.0113 l 0.01011,0.0044 c 0.0031,0.0014 0.0053,0.0043 0.0057,0.0077 5.03e-4,0.0034 -7.67e-4,0.0067 -0.0034,0.009 l -0.0083,0.0073 c -0.208157,0.14239 -0.457499,0.212062 -0.709313,0.198194 -0.370351,0 -0.620619,-0.112948 -0.722391,-0.209845 l -0.0077,-0.0073 c -0.0025,-0.0023 -0.0036,-0.0058 -0.003,-0.0091 6.35e-4,-0.0033 0.0029,-0.0061 0.0061,-0.0074 z m -0.353943,0.201047 0.01379,-0.01 0.01,0.01379 c 0.17929,0.248485 0.584358,0.402684 1.057193,0.402684 0.459044,0 0.859236,-0.147541 1.044352,-0.385207 l 0.0042,-0.0054 c 0.0034,-0.0043 0.0096,-0.0051 0.01391,-0.0018 l 0.0055,0.004 c 0.21428,0.161991 0.390313,0.369119 0.515637,0.606704 0.0031,0.0059 0.0025,0.01316 -0.0017,0.01843 -0.254668,0.326122 -1.085489,0.464752 -1.581865,0.464752 -0.920942,0 -1.492459,-0.29961 -1.6041,-0.49816 -0.0028,-0.0051 -0.0028,-0.0113 0,-0.01641 0.129093,-0.233555 0.307626,-0.43611 0.523129,-0.593506 z"
       id="path1"
       style="stroke-width:0.264582" /></g></svg>
