<svg xml:space="preserve" xmlns="http://www.w3.org/2000/svg" viewBox="0 0 24 24">
  <path d="M0 0v24h24V0Zm13.136 6.223h.764c0 .2.15.35.332.35.183 0 .332-.15.332-.35h.681c0 .216.133.35.333.35.182 0 .332-.183.332-.35h.764l-.515.914a13.37 13.37 0 0 0-1.562-.083c-.332 0-.664.017-1.013.05zm1.445 1.013c.282 0 .531 0 .764.034.265.033.531.183.531.465 0 .183-.099.316-.282.316a.277.277 0 0 1-.183-.067c.017.133.15.216.283.216.216 0 .365-.133.365-.415a.666.666 0 0 0-.15-.449c.35.283.565.781.565 1.362 0 1.014-.365 1.545-1.494 1.944-.582.2-1.047.332-1.629.548-.947.349-1.511.997-1.511 1.91 0 .632.315 1.346.98 1.678-1.013-.133-1.728-1.046-1.728-2.06 0-1.096.831-2.076 2.11-2.375.482-.116.897-.183 1.462-.332 1.063-.283 1.395-.748 1.395-1.362a.767.767 0 0 0-.116-.432c.016.1.016.182.016.282 0 .664-.614 1.263-1.511 1.346-.482.033-.997.1-1.495.15-.117.016-.166-.034-.166-.134l-.017-.797c0-.034.017-.067.066-.067.034 0 .05.017.067.05.1.15.3.3.582.3.232 0 .365-.134.365-.283 0-.167-.15-.316-.448-.316-.648 0-.98.449-1.695.449-.78 0-1.046-.383-1.046-.748 0-.3.166-.482.382-.581-.067.083-.083.15-.083.265 0 .25.299.449.83.449.499 0 .814-.116 1.196-.116.498 0 .798.166.93.349-.016-.382-.299-.715-.664-.715-.25 0-.35.15-.382.216-.017.05-.05.067-.083.067-.034 0-.067-.017-.067-.05l-.083-.83c-.016-.1.033-.15.166-.167l.848-.066c.15.415.249.648.465.648.116 0 .166-.133.166-.25.182-.05.365-.05.547-.033-.215-.149-.93-.066-1.146-.365.35-.017.615-.034.898-.034Zm-9.785 0c.449 0 .848.2 1.113.532-.382-.05-.747.217-.863.516a.737.737 0 0 0-.25-.034.67.67 0 0 0-.68.665c0 .365.298.68.68.68.382 0 .615-.298.615-.68v-.067c.016-.016.05-.016.1-.016.066 0 .133.033.133.15 0 .132-.05.381-.05.63 0 .233.05.399.116.565l.565 2.359a1.12 1.12 0 0 0-.233.25c-.315.066-.581.265-.697.547l-.598-2.757c-.93-.017-1.678-.748-1.678-1.661 0-.98.764-1.678 1.727-1.678zm11.529.316c.365.316.664.798.664 1.629 0 .863-.249 1.744-1.445 2.192-.564.216-.88.332-1.478.581-.93.4-1.23.93-1.23 1.645 0 .681.366 1.063.648 1.296-.68-.117-1.395-.814-1.395-1.745 0-.897.498-1.428 1.462-1.794.532-.199 1.047-.349 1.528-.498 1.18-.415 1.595-1.03 1.595-2.126 0-.465-.133-.914-.349-1.18zm3.007.067c.382 0 .648.183.814.382a1.127 1.127 0 0 0-.565.93c0 .482.25.78.482 1.03l-.615.449c-.349-.316-.565-.731-.565-1.196-.249-.133-.465-.416-.465-.748 0-.482.416-.847.914-.847zm1.91 0c.498 0 .963.366.963.847a.855.855 0 0 1-.498.781c.017.282-.166.648-.382.88-.416.449-1.18.93-1.678 1.33-.498.398-.764.813-.764 1.378 0 .748.598 1.296 1.362 1.296.715 0 1.33-.548 1.33-1.313 0-.697-.5-1.212-1.263-1.56l.63-.45c.682.399 1.43.947 1.43 2.127 0 1.628-1.313 3.056-3.44 3.056-.664 0-.846-.082-1.262-.249.266.25.548.615.565 1.063.333.1.565.15 1.28.15.315 0 .747-.05 1.096-.15.249-.066.398-.166.482-.282a.815.815 0 0 1 .132.415.775.775 0 0 1-.581.748c.116 1.18.216 2.359.216 3.422 0 .797-.399 1.279-.963 1.279a.189.189 0 0 0 .05-.133c0-.316-.35-.465-.599-.465-.498 0-.764.398-1.312.398-.482 0-.681-.398-1.047-.398-.232 0-.398.15-.398.349 0 .1.033.182.1.266-.316 0-.682-.3-.682-.715a.65.65 0 0 1 .067-.3.739.739 0 0 1-.15-.464c0-.2.1-.416.316-.548-.067-.499.332-.831.78-.831.499 0 .748.349.831.698.067.249.166.332.282.348.216.034.565 0 .698-.033.15-.033.216-.116.216-.365 0-.415-.116-.963-.216-1.429-.249.033-.864.067-1.329.067-1.03 0-1.611-.465-1.71-1.479a2.937 2.937 0 0 0-.366-1.262c-.183-.35-.598-.814-.598-1.412 0-.448.166-.715.681-.963.365-.167.797-.366 1.163-.582-.017.582.332 1.362.78 1.694.499.366.963.465 1.645.465.78 0 1.528-.232 1.927-.697-.233.15-.549.232-.947.232-1.23 0-2.01-.947-2.01-1.96 0-.73.398-1.379 1.063-1.927.548-.448 1.047-.73 1.429-1.113.249-.249.465-.548.465-.897 0-.415-.283-.813-.582-.93.166-.199.498-.382.798-.382zM6.59 7.635c.2 0 .299.05.398.117a.837.837 0 0 1 .316-.05c.382 0 .797.316.797.797 0 .449-.266.664-.532.847-.132.1-.165.2-.149.35.017.182.117.498.166.664.05.15.166.216.35.199.913-.066 2.225-.166 3.023-.2.747-.032 1.279-.05 1.894-.082-1.163.282-1.828 1.063-2.01 2.176l-.532.282c-.117-.449-.715-.598-2.094-.598-.481 0-.78.033-1.113.033-.514 0-.897-.216-1.013-.631.2 0 .349-.166.349-.366 0-.398-.614-.797-.614-1.56 0-.25.033-.483.033-.665 0-.2-.166-.332-.349-.332a.519.519 0 0 0-.349.132c-.033-.465.349-.813.83-.78.067-.15.316-.333.599-.333Zm.548.266c.1.083.2.283.2.499 0 .1-.018.232-.084.382.2-.067.349-.216.349-.449 0-.25-.216-.432-.465-.432zm-.781.066c-.1 0-.166.034-.216.05.283.117.482.366.465.831.15-.1.2-.266.2-.415a.461.461 0 0 0-.449-.466zm10.598.117c.25.299.548.764.548 1.678 0 .947-.315 1.827-1.362 2.342-.498.233-.83.365-1.395.631-.648.332-1.014.798-1.014 1.346 0 .432.2.764.383.947-.632-.183-1.03-.781-1.03-1.413 0-.664.315-1.113 1.13-1.495.514-.232.896-.315 1.494-.564 1.18-.466 1.479-1.346 1.479-2.359 0-.349-.05-.765-.233-1.113zm.648.847c.182.365.332.797.332 1.346 0 1.096-.382 2.159-1.478 2.724-.465.232-.731.382-1.08.548-.532.233-.78.598-.78 1.03 0 .332.082.515.165.665-.481-.133-.78-.565-.78-1.146 0-.466.315-.848.88-1.147.399-.2.731-.332 1.396-.665 1.046-.515 1.445-1.362 1.445-2.508 0-.299-.05-.548-.1-.847zM3.916 10.56c.183.1.399.166.648.216l.216.997-.997 4.285-.449.316-1.245 5.349-1.013.78zm2.957 2.01c.4 0 .814.299.814.83 0 .266-.066.333-.066.532 0 .117.033.216.2.382.198.2.298.316.414.316.117 0 .183-.05.316-.15.747-.63 1.395-1.295 2.292-1.777.017.78.316 1.412.964 1.894l-.565.432c-.1-.1-.2-.133-.332-.133-.216 0-.432.083-.764.299-.382.249-1.013.897-1.462 1.329-.25.25-.515.382-.764.382-.2 0-.366-.083-.45-.266.2-.05.3-.2.3-.332 0-.2-.116-.333-.266-.432-.249-.15-.515-.283-.747-.482a3.515 3.515 0 0 1-.548-.598c-.117-.133-.216-.183-.366-.183-.182 0-.315.133-.315.283 0 .083.016.15.05.199-.25-.083-.4-.349-.4-.631a.67.67 0 0 1 .333-.565.619.619 0 0 1-.033-.2c0-.348.282-.68.73-.714.084-.233.333-.415.665-.415zm-.216.349a.452.452 0 0 0-.266.083.724.724 0 0 1 .582.664c.05-.083.1-.166.1-.332a.422.422 0 0 0-.416-.415zm-.598.665c-.216 0-.365.116-.398.249a.998.998 0 0 1 .249-.034c.249 0 .465.117.564.316.05-.316-.133-.531-.415-.531zm-.216 1.245c.066 0 .117.033.183.1.216.249.349.398.581.598.133.116.3.216.465.299l1.03 4.468a.864.864 0 0 0-.282.632c0 .182.05.349.133.498a.686.686 0 0 0-.05.266c0 .1.017.2.066.299l-.349-.266-1.245-5.349-.449-.316-.216-1.03c-.033-.132.033-.199.133-.199zm8.007.449c.232 0 .349.15.448.299.183.282.332.581.515.963-.133.067-.2.183-.2.35 0 .232.134.431.316.53l-1.943.05c-.017.117-.017.233-.017.333 0 .216.15.366.349.366.15 0 .282-.05.399-.15.066.68-.35.897-.781.914.017.614.05 1.063.05 2.176 0 .797-.399 1.279-.964 1.279a.187.187 0 0 0 .05-.133c0-.315-.349-.465-.598-.465-.498 0-.764.399-1.312.399-.482 0-.681-.399-1.047-.399-.232 0-.399.15-.399.349 0 .1.034.182.1.266-.315-.001-.68-.3-.68-.715 0-.117.016-.183.066-.3a.736.736 0 0 1-.15-.464c0-.2.1-.416.316-.549-.066-.498.332-.83.78-.83.499 0 .748.349.831.698.067.249.166.332.283.348.216.034.565 0 .698-.033.149-.033.215-.116.215-.365.017-1.744-.2-2.858-.2-3.489 0-.68.383-.98.782-1.113.531-.182 1.578-.332 2.093-.315zm.748.15c.1 0 .182.032.249.132.116.15.265.382.382.598.216.382.349.748.365 1.28h-.166c-.349 0-.598-.25-.598-.516 0-.166.05-.266.25-.299a9.49 9.49 0 0 0-.549-1.063c-.05-.083 0-.133.067-.133zm-5.665 4.6c-.266 0-.399.15-.416.283a.688.688 0 0 1 .316-.066c.266 0 .481.149.548.299.033-.266-.133-.515-.448-.515Zm7.874 0c-.266 0-.399.15-.416.283a.687.687 0 0 1 .316-.066c.266 0 .482.149.548.299.033-.266-.132-.515-.448-.515zm-8.024.765c-.315 0-.482.249-.448.448.066-.083.2-.2.465-.2.216 0 .382.1.482.217 0-.233-.167-.465-.499-.465zm7.874 0c-.316 0-.482.249-.448.448.066-.083.2-.2.465-.2.216 0 .382.1.481.217 0-.233-.166-.465-.498-.465z" style="stroke-width:1"/>
</svg>
