<svg xmlns="http://www.w3.org/2000/svg" viewBox="0 0 24 24">
  <path d="M2.304 6.796v4.676h.504v-1.438h.581c.379 0 .664-.086.857-.263.193-.176.289-.424.289-.745V7.804c0-.318-.096-.565-.292-.742-.196-.176-.478-.266-.854-.266ZM0 6.799v.43h.36v3.813H0v.433h1.223v-.433h-.36V7.229h.36V6.8Zm5.469 0v4.676h.504V9.82h.584l.84 1.656h.556L7.067 9.75c.42-.135.632-.447.632-.934V7.807c0-.318-.096-.565-.292-.741-.195-.177-.478-.267-.853-.267Zm-2.664.43h.584c.206 0 .366.052.475.151.11.1.167.24.167.424v1.222c0 .386-.215.575-.639.575l-.003.003h-.584Zm3.165 0h.584c.205 0 .365.052.475.151.109.1.167.24.167.424V8.81c0 .386-.216.575-.642.575v.003H5.97Zm2.987 1.034v.455H24v-.455Zm1.16 4.043c-.383 0-.672.087-.861.264-.19.176-.286.423-.286.744v.395h.504v-.424c0-.366.212-.545.639-.545.427 0 .379.048.488.144.109.096.167.231.167.405v1.18h-.835c-.69 0-1.037.338-1.037 1.008v.72c0 .67.347 1.007 1.037 1.007s.376-.051.54-.154c.163-.103.295-.24.394-.414l.186.459h.215v-3.778l.007-.003c0-.32-.097-.568-.292-.744-.193-.177-.485-.263-.867-.263zm7.461 0c-.382 0-.67.087-.86.264-.19.176-.286.423-.286.744v.395h.504v-.424c0-.366.212-.545.642-.545.43 0 .379.048.488.144.109.096.167.231.167.405v1.18h-.835c-.69 0-1.036.338-1.036 1.008v.72c0 .67.346 1.007 1.036 1.007.69 0 .376-.051.54-.154.163-.103.295-.24.394-.414l.186.459h.215v-3.778l.004-.003c0-.32-.097-.568-.293-.744-.195-.177-.484-.263-.866-.263zm-15.184.106v4.677h.504V15.65h.581c.379 0 .664-.087.857-.263.192-.177.289-.424.289-.745V13.42c0-.318-.097-.565-.292-.741-.196-.177-.478-.267-.854-.267Zm3.161.004v4.676h.504v-1.656h.584l.841 1.656h.556l-.886-1.727c.42-.135.632-.446.632-.934v-1.008c0-.317-.096-.564-.292-.741-.196-.177-.478-.266-.854-.266Zm7.087 0v4.676h.504v-2.16h1.418v2.16h.504v-4.676h-.504v2.086h-1.418v-2.086Zm-6.583.426h.584c.206 0 .366.052.475.151.11.1.167.241.167.424v1.008c0 .385-.215.574-.638.574l-.004.003H6.06Zm-3.167.004h.584c.205 0 .366.051.475.15.109.1.167.241.167.424v1.223c0 .385-.215.574-.639.574l-.003.004h-.584ZM9.936 14.9h.835v1.168c-.01.154-.1.308-.273.465a.818.818 0 0 1-.562.235c-.202 0-.34-.052-.417-.151-.077-.1-.115-.241-.115-.424v-.719c0-.183.038-.324.115-.423.077-.1.215-.151.417-.151zm7.462 0h.835v1.168c-.01.154-.1.308-.273.465a.818.818 0 0 1-.562.235c-.202 0-.34-.052-.417-.151-.077-.1-.116-.241-.116-.424v-.719c0-.183.039-.324.116-.423.077-.1.215-.151.417-.151z" style="stroke-width:.999999"/>
</svg>
