<svg xml:space="preserve" xmlns="http://www.w3.org/2000/svg" viewBox="0 0 24 24"><path style="stroke-width:.999999;-inkscape-stroke:none" d="M12 3a9 9 0 0 0-9 9 9 9 0 0 0 9 9 9 9 0 0 0 9-9 9 9 0 0 0-9-9zM9.846 6.863c.233.01.53.102.832.438.285.316.723 1.365.845 1.625.151.326.788 1.796.884 2.14.32-.229.79-.686 1.268-1.204.513-.557 1.086-1.49 1.149-1.953.053-.018.103.013.151.041l.02.01c.541.278 1.044.496 1.3 1.112.252.604-.266 3.147-.26 4.845 0 .081 0 .162-.002.243.024.607-.217 1.792-.73 1.515-.168-.09-.412-.597-.606-1.171-.314-.93-.054-3.227-.315-3.276-.407.487-1.499 1.352-1.914 1.62-.71.456-.936-.175-1.062-.585-.153-.501-.742-1.617-.86-1.708-.09-.07-.097.03-.114.089-.043.145-.268 1.693-.511 2.538-.261.907-.882 2.401-1.17 2.754-.288.352-1.487.653-1.728.663-.156.037.844-2.004 1.08-2.866.338-.887.853-2.933.918-4.302.055-.904-.024-1.746-.036-1.99 0-.328.335-.508.523-.545a1.319 1.319 0 0 1 .338-.033Z"/></svg>