<svg version="1.1" id="svg5" xmlns="http://www.w3.org/2000/svg" viewBox="0 0 24 24">
  <path id="path4" d="M0 0v24h11.746V0Zm12.254 0v24H24V0ZM3.161 2.387c.568 0 1.002.369 1.002.907S3.73 4.2 3.161 4.2h-.435v1.04h-.471V2.394h.906zm2.063 0h.907c.567 0 1.002.332 1.002.87a.813.813 0 0 1-.501.774h.007l.605 1.2h-.538l-.538-1.105h-.472v1.106h-.472zm3.862.008h.471l.973 2.844h-.472l-.235-.7H8.82l-.235.7h-.472Zm4.436 0h.471v1.171h1.238V2.395h.464v2.844h-.464V3.964h-1.238V5.24h-.471zm4.347 0h.472l.972 2.844h-.471l-.236-.7h-1.002l-.236.7h-.471Zm-12.18.398v.936h.405v.007c.302 0 .538-.133.538-.472 0-.339-.236-.471-.538-.471zM2.726 2.8v1.002h.406c.302 0 .538-.132.538-.5 0-.37-.236-.502-.538-.502zm6.595.162-.368 1.172h.737zm8.791 0-.368 1.172h.737zm-3.22 4.849c.84 0 .67.066.84.133v.397a2.449 2.449 0 0 0-.84-.132.98.98 0 0 0-.972 1.039c0 .773.471 1.068.972 1.068s.405-.037.472-.066v-.766h-.634v-.398H15.8v1.437c-.236.132-.538.198-.907.198-.84 0-1.474-.471-1.474-1.473 0-1.002.634-1.437 1.474-1.437zm-11.73.022c.567 0 1.001.368 1.001.906s-.434.907-1.002.907h-.435v1.039h-.471V7.84h.906zm5.924.007h.471l.973 2.845h-.472l-.235-.7H8.82l-.235.7h-.472Zm11.465 0h1.71v.406h-1.238v.803h1.068v.398h-1.068v.84h1.238v.398h-1.71zm-15.327.008h.907c.567 0 1.002.331 1.002.87a.81.81 0 0 1-.501.766h.007l.605 1.208h-.538l-.538-1.105h-.472v1.105h-.472zm11.85 0h.47v1.739c0 .471.2.737.635.737.434 0 .633-.266.633-.737v-1.74h.472v1.74c0 .7-.332 1.134-1.105 1.134-.737 0-1.106-.434-1.106-1.134zm-14.348.398v1.002h.406c.302 0 .538-.133.538-.501 0-.369-.236-.501-.538-.501zm2.963 0v.936h.405v.007c.302 0 .538-.133.538-.472 0-.339-.236-.471-.538-.471zm3.632.162-.368 1.171h.737Zm5.571 4.856c.84 0 .67.066.84.132v.398a2.449 2.449 0 0 0-.84-.132.98.98 0 0 0-.972 1.039c0 .773.471 1.068.972 1.068s.405-.037.472-.066v-.767h-.634v-.397H15.8v1.436c-.236.133-.538.2-.907.2-.84 0-1.474-.472-1.474-1.474 0-1.003.634-1.437 1.474-1.437zm-11.73.022c.567 0 1.001.368 1.001.906s-.434.907-1.002.907h-.435v1.038h-.471v-2.844h.906zm5.924.007h.471l.973 2.844h-.472l-.235-.7H8.82l-.235.7h-.472Zm8.783 0h.472l.972 2.844h-.471l-.236-.7h-1.002l-.236.7h-.471zM5.224 13.3h.907c.567 0 1.002.332 1.002.87a.81.81 0 0 1-.501.766h.007l.605 1.209h-.538l-.538-1.105h-.472v1.105h-.472zm-2.498.398v1.003h.406c.302 0 .538-.133.538-.501 0-.369-.236-.502-.538-.502zm2.963 0v.936h.405v.008c.302 0 .538-.133.538-.472 0-.339-.236-.472-.538-.472zm3.632.163-.368 1.171h.737zm8.791 0-.368 1.171h.737zm-3.22 4.878c.84 0 .67.066.84.132v.398a2.45 2.45 0 0 0-.84-.132.98.98 0 0 0-.972 1.039c0 .773.471 1.068.972 1.068s.405-.037.472-.066v-.767h-.634v-.398H15.8v1.437c-.236.133-.538.2-.907.2-.84 0-1.474-.472-1.474-1.474 0-1.003.634-1.437 1.474-1.437zm-11.723.014c.567 0 1.002.369 1.002.907s-.435.906-1.002.906h-.435v1.04h-.472V18.76h.907zm5.917.008h.471l.973 2.844h-.472l-.235-.7H8.82l-.235.7h-.472Zm-3.862.007h.907c.567 0 1.002.332 1.002.87a.803.803 0 0 1-.501.766h.007l.605 1.208h-.538l-.538-1.105h-.472v1.106h-.472zm-2.498.413v1.002h.406c.302 0 .538-.133.538-.501 0-.369-.236-.501-.538-.501zm2.963 0v.936h.405v.007c.302 0 .538-.133.538-.472 0-.338-.236-.471-.538-.471zm3.64.17-.369 1.17h.737z" style="fill-opacity:1;stroke-width:1"/>
  <defs id="defs1">
    <clipPath clipPathUnits="userSpaceOnUse" id="clipPath5"/>
  </defs>
</svg>
