<svg xmlns="http://www.w3.org/2000/svg" viewBox="0 0 24 24"><path style="stroke-width:.999996;-inkscape-stroke:none" d="M12 3a9 9 0 0 0-9 9 9 9 0 0 0 9 9 9 9 0 0 0 9-9 9 9 0 0 0-9-9zM8.25 7.625h7.5c.69 0 1.25.56 1.25 1.25v6.25c0 .69-.56 1.25-1.25 1.25h-7.5c-.69 0-1.25-.56-1.25-1.25v-6.25c0-.69.56-1.25 1.25-1.25zm.938 1.25a.938.938 0 1 0 0 1.875.938.938 0 1 0 0-1.875zm3.75 1.875c-.155 0-.301.076-.387.205l-1.7 2.492-.517-.646a.468.468 0 0 0-.73 0l-1.25 1.562a.468.468 0 0 0 .365.762h6.562a.47.47 0 0 0 .387-.732l-2.344-3.438a.468.468 0 0 0-.386-.205z"/><!--! Font Awesome Free 6.7.1 by @fontawesome - https://fontawesome.com License - https://fontawesome.com/license/free (Icons: CC BY 4.0, Fonts: SIL OFL 1.1, Code: MIT License) Copyright 2024 Fonticons, Inc.--></svg>